<?xml version="1.0" standalone="no"?>
<!DOCTYPE svg PUBLIC "-//W3C//DTD SVG 20010904//EN"
 "http://www.w3.org/TR/2001/REC-SVG-20010904/DTD/svg10.dtd">
<svg version="1.0" xmlns="http://www.w3.org/2000/svg"
 width="32.000000pt" height="32.000000pt" viewBox="0 0 32.000000 32.000000"
 preserveAspectRatio="xMidYMid meet">

<g transform="translate(0.000000,32.000000) scale(0.100000,-0.100000)"
fill="#000000" stroke="none">
<path d="M0 160 l0 -160 160 0 160 0 0 160 0 160 -160 0 -160 0 0 -160z m190
2 c0 -8 -16 -1 -40 18 l-40 32 0 -41 c0 -22 -4 -43 -10 -46 -6 -4 -10 20 -10
65 l0 71 50 -43 c27 -24 50 -49 50 -56z m40 2 c0 -47 -4 -73 -10 -69 -18 11
-12 145 7 145 2 0 3 -34 3 -76z m-20 -77 c0 -5 -18 6 -40 23 -22 17 -40 39
-40 48 0 11 13 4 40 -23 22 -21 40 -43 40 -48z"/>
</g>
</svg>
