<?xml version="1.0" encoding="UTF-8"?> <svg xmlns="http://www.w3.org/2000/svg" viewBox="0 0 100 100" fill-rule="evenodd"><g style="transform-origin: center center; transform: scale(0.7);"><path d="m53.895 96.379h-32.449c-1.0039 0-1.9453-0.48047-2.5312-1.293-0.58594-0.8125-0.75-1.8555-0.4375-2.8086l3.1055-9.4609c1.043-3.1641 1.4375-6.5039 1.168-9.8203l-0.10938-1.3867c-0.39062-4.0703-1.6992-8.0039-3.8242-11.5-2.7461-4.7578-4.2617-10.133-4.4062-15.629-0.14844-5.1328 0.92578-10.23 3.1328-14.871l-4.8008-3.8594c-1.2422-1.0039-1.8398-2.6094-1.5508-4.1797 0.28906-1.5742 1.4141-2.8633 2.9336-3.3594l2.5703-0.83984-2.5977-4.6953c-0.62891-1.1406-0.71484-2.4961-0.24219-3.707 0.47656-1.207 1.4648-2.1445 2.6992-2.5469l7.9219-2.5859c1.918-0.62891 4.0195 0.14453 5.0703 1.8711l4.6094 7.5586c3.8203-1.7305 7.9375-2.7031 12.129-2.875 5.1406-0.18359 10.254 0.82031 14.941 2.9297l4.6406-7.6094c1.0508-1.7266 3.1484-2.5039 5.0703-1.875l7.918 2.582c1.2383 0.40625 2.2266 1.3398 2.7031 2.5508 0.47656 1.207 0.38672 2.5664-0.24219 3.707l-2.5938 4.6953 2.5664 0.83984c1.5195 0.49609 2.6484 1.7852 2.9336 3.3594 0.28906 1.5703-0.30469 3.1758-1.5508 4.1797l-4.9922 4.0156c1.9648 4.3164 2.9844 9.0078 2.9844 13.75 0.003907 1.6797-0.11719 3.3594-0.36328 5.0234-0.25781 1.4844 0.058594 3.0117 0.89062 4.2734 1.3945 2.2344 3.2109 4.1758 5.3477 5.7109 1.5742 1.0352 2.4648 2.8438 2.3281 4.7266-0.14063 1.8828-1.2852 3.5391-2.9961 4.3359-1.75 0.83984-3.6445 1.332-5.5781 1.4492-0.33984 3.5039-1 9.2227-1.5156 13.652-0.28906 2.5352-1.6055 4.8398-3.6445 6.3789-2.0391 1.5352-4.6172 2.168-7.1328 1.75-3.5898-0.58594-7.1016-1.5742-10.473-2.9492-0.38672 1.7383-0.55859 3.5195-0.50781 5.3008 0.023438 0.84375-0.29688 1.6602-0.88672 2.2656-0.58594 0.60156-1.3945 0.94531-2.2383 0.94531zm-28.133-6.25h25.109c0.16016-1.8164 0.49609-3.6133 1.0039-5.3672-5.0586-3.3125-8.1836-8.8828-8.3711-14.926-0.066406-1.7227 1.2773-3.1758 3-3.2422 1.7266-0.0625 3.1758 1.2812 3.2422 3.0039 0.1875 4.7969 3.043 9.082 7.3945 11.102 0.125 0.070312 0.24609 0.14844 0.35938 0.23438 3.6289 1.8438 7.5234 3.1016 11.547 3.7227 0.82031 0.13672 1.6602-0.070312 2.3203-0.57812 0.67578-0.50391 1.1094-1.2656 1.2031-2.1055 0.50781-4.418 1.168-10.105 1.5312-13.535 0.39844-2.9727 2.7695-5.2969 5.7539-5.6367 0.55078-0.03125 1.0977-0.11719 1.6328-0.25-2.1523-1.8047-4.0117-3.9297-5.5195-6.3047-1.6875-2.5469-2.3477-5.6406-1.8438-8.6562 0.19531-1.3516 0.29297-2.7109 0.28906-4.0742 0-3.3086-0.60937-6.5898-1.8008-9.6758l-8.9844 7.2305c-1.6367 1.3164-3.9766 1.2773-5.5703-0.085937-1.5938-1.3672-1.9922-3.6758-0.94141-5.4922l5.3867-9.2969-2.3672-0.77344v0.003906c-1.2695-0.41406-2.2812-1.3867-2.7422-2.6367-0.46094-1.25-0.32812-2.6445 0.37109-3.7812l0.17969-0.30078c-3.6133-1.5078-7.5117-2.2148-11.426-2.0703-3.1211 0.12891-6.1953 0.8125-9.082 2.0156l0.21484 0.35547c0.69531 1.1328 0.83203 2.5234 0.37109 3.7734-0.46094 1.25-1.4648 2.2227-2.7305 2.6367l-2.3828 0.77734 5.3828 9.293c1.0547 1.8164 0.66406 4.1289-0.93359 5.4961-1.5938 1.3672-3.9375 1.4023-5.5703 0.082031l-9.2031-7.3945c-1.3789 3.3672-2.0352 6.9844-1.9297 10.621 0.11719 4.4609 1.3438 8.8203 3.5703 12.688 2.5938 4.3008 4.1797 9.1328 4.6445 14.133l0.10938 1.3906h0.003906c0.33203 4.1445-0.16406 8.3164-1.4648 12.266zm57.332-26.387 0.015625 0.011718zm0.10156-1.8047-0.015624 0.007812zm-18.852-41.715 2.3164 0.75391c1.25 0.40625 2.25 1.3594 2.7188 2.5859 0.47266 1.2305 0.36328 2.6055-0.29688 3.7461l-1.4688 2.5352 3.8984-3.1406h0.003906c0.16406-0.16797 0.35156-0.31641 0.55078-0.44141l3.9688-3.1914-1.4297-0.46875c-1.2383-0.40234-2.2305-1.3398-2.707-2.5547-0.47266-1.2109-0.38281-2.5742 0.25391-3.7109l2.5859-4.6836-4.3164-1.4102-5.1719 8.4883c-0.035156 0.078125-0.078125 0.15625-0.11719 0.23047h-0.003906c-0.074218 0.13281-0.16016 0.26172-0.25391 0.38281zm-40.523 6.418 3.9805 3.1992-1.4688-2.5312c-0.65625-1.1406-0.76562-2.5156-0.29688-3.7422 0.46875-1.2305 1.4688-2.1797 2.7188-2.5898l2.3203-0.75781-6.082-9.9766-4.3164 1.4102 2.5938 4.6953c0.62891 1.1367 0.71875 2.4961 0.24219 3.707-0.47266 1.207-1.4648 2.1406-2.6992 2.5469l-1.4297 0.46875 3.7148 2.9883v-0.003906c0.26562 0.16016 0.51172 0.35547 0.72266 0.58594zm55.527-2.4922m-1.7266-4.793-0.007813 0.011719z" fill="#ffffff"></path></g></svg> 