<?xml version="1.0" encoding="UTF-8"?> <svg xmlns="http://www.w3.org/2000/svg" viewBox="0 0 100 100" fill-rule="evenodd"><g style="transform-origin: center center; transform: scale(0.7);"><path d="m92.562 67.828c-0.23438-5.6797-1.6055-11.25-4.0312-16.391v-8.6406c0.86328-0.88281 1.5117-1.9492 1.8906-3.125 0.31641-0.96875 0.93359-1.8125 1.7656-2.4062 2.793-2.0234 3.9609-5.6133 2.8906-8.8906-0.32812-0.97266-0.32812-2.0273 0-3 1.0703-3.2773-0.097656-6.8672-2.8906-8.8906-0.83203-0.59766-1.4492-1.4453-1.7656-2.4219-1.0586-3.3008-4.1445-5.5273-7.6094-5.5-1.0234 0.011719-2.0234-0.3125-2.8438-0.92188-2.7891-2.0469-6.5859-2.0469-9.375 0-0.82422 0.60156-1.8203 0.92578-2.8438 0.92188-3.4219 0.023438-6.4375 2.2422-7.4844 5.5-0.32031 0.97266-0.9375 1.8203-1.7656 2.4219-0.39844 0.28906-0.76172 0.62109-1.0938 0.98438l-0.32812-0.39062c-2.8594-2.8633-7.1602-3.7227-10.898-2.1758-3.7422 1.5469-6.1797 5.1914-6.1797 9.2383v4.0781c-9.0078 2.1289-17.07 7.1562-22.949 14.309-5.8789 7.1523-9.25 16.035-9.5977 25.285-0.44922 0.23047-0.87891 0.50391-1.2812 0.8125-1.9453 1.5391-3.0703 3.8945-3.0469 6.375-0.015625 2.957 1.6094 5.6836 4.2188 7.0781l1.75 3.8125c2.2461 4.8828 7.125 8.0234 12.5 8.0469h56.75c5.375-0.023438 10.254-3.1641 12.5-8.0469l1.75-3.8125c2.625-1.4023 4.2578-4.1445 4.2383-7.1211-0.019531-2.9766-1.6875-5.6992-4.332-7.0664zm-32.219-48.812c1.3555-0.99219 2.3672-2.3867 2.8906-3.9844 0.63281-1.9922 2.4844-3.3477 4.5781-3.3438 1.6914 0 3.3359-0.54688 4.6875-1.5625 1.6953-1.2344 3.9922-1.2344 5.6875 0 1.3516 1.0156 2.9961 1.5625 4.6875 1.5625 2.1094-0.023438 3.9844 1.332 4.625 3.3438 0.52344 1.5977 1.5352 2.9922 2.8906 3.9844 1.7109 1.2148 2.4375 3.3945 1.7969 5.3906-0.53125 1.5977-0.53125 3.3242 0 4.9219 0.64844 1.9961-0.066406 4.1797-1.7656 5.4062-1.3711 0.98438-2.3945 2.3789-2.9219 3.9844-0.65625 2.0234-2.5625 3.375-4.6875 3.3281-1.6914 0-3.3359 0.54688-4.6875 1.5625-1.6953 1.2344-3.9922 1.2344-5.6875 0-1.3516-1.0156-2.9961-1.5625-4.6875-1.5625-2.0859 0.003906-3.9375-1.3398-4.5781-3.3281-0.51953-1.5977-1.5312-2.9922-2.8906-3.9844-1.6992-1.2266-2.4141-3.4102-1.7656-5.4062 0.53125-1.5977 0.53125-3.3242 0-4.9219-0.63281-2.0039 0.10938-4.1836 1.8281-5.3906zm25.078 39.484c-0.10156 0.089844-0.23828 0.14062-0.375 0.14062-0.16797 0.027344-0.34375-0.023437-0.46875-0.14062l-5.625-5.6875c-0.57812-0.54688-1.2812-0.94922-2.0469-1.1719v-4.1875c1.1289-0.21875 2.1953-0.68359 3.125-1.3594 0.80859-0.58594 1.7812-0.90625 2.7812-0.92188 0.86719 0.003906 1.7266-0.13672 2.5469-0.42188v13.75zm-11.641-11.047v4.1094c-0.73828 0.20312-1.418 0.57812-1.9844 1.0938l-6.4844 6.0938c-0.14062 0.11328-0.32422 0.16016-0.5 0.125-0.11719-0.011719-0.23047-0.046875-0.32812-0.10938v-14.344c1.0391 0.49219 2.1758 0.75 3.3281 0.75 1.0195 0.003906 2.0156 0.32812 2.8438 0.92188 0.92969 0.67578 1.9961 1.1406 3.125 1.3594zm-30.656-23.312c0-2.7773 1.6719-5.2773 4.2344-6.3438s5.5156-0.48828 7.4844 1.4688c0.3125 0.3125 0.58984 0.66016 0.82812 1.0312-0.55469 1.6484-0.55469 3.4297 0 5.0781 0.21484 0.65234 0.28516 1.3477 0.20312 2.0312-4.2148-0.57812-8.4883-0.53125-12.688 0.14062zm-1.2344 6.8281c4.3945-0.90625 8.9141-1.0625 13.359-0.45312-0.11719 2.6523 1.1055 5.1875 3.25 6.75 0.82422 0.59766 1.4414 1.4375 1.7656 2.4062 0.25391 0.82031 0.64453 1.5898 1.1562 2.2812-0.015625 0.125-0.015625 0.25 0 0.375v16.484c-0.003906 1.293 0.79297 2.457 2 2.9219 0.49219 0.21484 1.0234 0.32812 1.5625 0.32812 0.9375 0.003906 1.8438-0.34766 2.5312-0.98438l6.5-6.0938c0.39062-0.33594 0.89453-0.50781 1.4062-0.48438 0.50781 0 1 0.1875 1.375 0.53125l5.6094 5.6719c1.0859 1.0586 2.6953 1.3633 4.0938 0.78125 0.80078-0.31641 1.4453-0.93359 1.7969-1.7188 0.60547 2.3438 0.99219 4.7422 1.1562 7.1562h-78.266-0.54688c0.53516-8.5938 3.8867-16.77 9.5352-23.27 5.6484-6.5 13.281-10.957 21.715-12.684zm46.188 53.562c-1.7461 3.8047-5.5469 6.2461-9.7344 6.25h-56.688c-4.1875-0.003906-7.9883-2.4453-9.7344-6.25l-0.6875-1.5625h77.531zm5.2812-7.6719c-0.47266 1.1133-1.332 2.0195-2.4219 2.5469-0.65625 0.30078-1.3711 0.45703-2.0938 0.45312h-77.656c-0.72266 0-1.4375-0.15234-2.0938-0.45312-1.7812-0.86328-2.8789-2.707-2.7852-4.6875 0.089844-1.9766 1.3516-3.7109 3.207-4.4062 0.50391-0.17578 1.0312-0.26562 1.5625-0.26562h77.734c1.8008-0.003906 3.457 0.97266 4.3281 2.5469 0.40234 0.73828 0.60938 1.5664 0.60938 2.4062 0 0.64062-0.13672 1.2734-0.39062 1.8594zm-26.562-48.031c0.3125 0.3125 0.45703 0.75391 0.39062 1.1875l-0.25 1.4531c-0.29297 1.6875 0.41406 3.3906 1.8125 4.375 0.76172 0.55469 1.6797 0.85547 2.625 0.85938 0.71875-0.007813 1.4297-0.1875 2.0625-0.53125l1.2969-0.6875c0.39062-0.20312 0.85938-0.20312 1.25 0l1.3125 0.6875c1.5039 0.77344 3.3125 0.64062 4.6836-0.35156 1.3672-0.98828 2.0664-2.668 1.8008-4.3359l-0.25-1.4531c-0.078125-0.43359 0.0625-0.87891 0.375-1.1875l1.0625-1.0312c1.2227-1.1914 1.6562-2.9727 1.125-4.5898-0.53125-1.6211-1.9375-2.7969-3.625-3.0352l-1.4531-0.21875c-0.44141-0.058594-0.82422-0.33203-1.0156-0.73438l-0.65625-1.3125c-0.75391-1.5273-2.3125-2.4922-4.0156-2.4844-1.707-0.003906-3.2656 0.96484-4.0156 2.5l-0.64062 1.3281c-0.19922 0.39453-0.57812 0.66797-1.0156 0.73438l-1.4688 0.21875c-1.6797 0.25-3.0742 1.4336-3.5938 3.0508-0.51953 1.6172-0.078125 3.3906 1.1406 4.5742zm0.76562-4.6875c0.16016-0.48828 0.58203-0.84766 1.0938-0.92188l1.4531-0.20312c1.4375-0.21875 2.6758-1.125 3.3281-2.4219l0.65625-1.3281c0.21484-0.46875 0.6875-0.76562 1.2031-0.75 0.51562-0.015625 0.98828 0.28125 1.2031 0.75l0.65625 1.3125c0.65234 1.3203 1.918 2.2344 3.375 2.4375l1.4688 0.21875c0.51172 0.0625 0.94531 0.41016 1.1172 0.89453 0.17578 0.48828 0.054687 1.0312-0.30469 1.4023l-1.0938 1.0312c-1.0508 1.0273-1.5273 2.5078-1.2656 3.9531l0.25 1.4531c0.097656 0.50781-0.10547 1.0273-0.52344 1.3359-0.41797 0.30469-0.97266 0.34375-1.4297 0.10156l-1.3125-0.6875c-1.3008-0.6875-2.8555-0.6875-4.1562 0l-1.3125 0.6875c-0.45312 0.23828-1 0.19922-1.4141-0.097656-0.41406-0.29688-0.62109-0.80469-0.53906-1.3086l0.25-1.4531c0.25391-1.4609-0.23047-2.9531-1.2969-3.9844l-1.0625-1.0156c-0.375-0.35156-0.50781-0.89062-0.34375-1.375z" fill="#ffffff" stroke-width="1" stroke="#ffffff"></path></g></svg> 