<?xml version="1.0" encoding="UTF-8"?> <svg xmlns="http://www.w3.org/2000/svg" viewBox="0 0 100 100" fill-rule="evenodd"><g style="transform-origin: center center; transform: scale(0.7);"><path d="m54.492 0.0625c-4.4258-0.37891-8.8242 1.0156-12.223 3.8789-0.007812 0.007813-0.019531 0.015625-0.027343 0.023438-4.1406 3.6328-5.7305 8.332-5.3516 13.098s2.5469 9.6133 5.5898 14.309c6.0781 9.3906 15.746 18.215 23.129 23.641 0.63672 0.46875 1.5039 0.46094 2.1367-0.015625 7.8125-5.9023 17.719-14.453 23.805-23.598 3.043-4.5742 5.1641-9.3242 5.4141-14.082 0.25-4.7578-1.5352-9.4766-5.8516-13.344-7.2617-6.1992-18.445-3.8164-23.648 1.9883l-0.79297 0.94141-0.79688-0.94141c-3.1016-3.5156-7.3516-5.3477-11.383-5.9023zm24.656 3.5508c3.3516-0.28906 6.8086 0.70703 9.5977 3.0469 3.625 3.2578 4.8516 6.6719 4.6484 10.469-0.19922 3.8047-1.9922 8.043-4.8203 12.293-5.4062 8.125-14.434 16.066-21.895 21.805-6.9609-5.2656-15.77-13.406-21.203-21.793-2.8438-4.3945-4.7148-8.7891-5.0234-12.652-0.30859-3.8594 0.76953-7.1562 4.1406-10.121 2.6719-2.2422 6.1211-3.3398 9.5977-3.043 3.4844 0.30078 6.7031 1.9727 8.9531 4.6445l2.1602 2.5625c0.71484 0.84766 2.0195 0.84766 2.7305 0l2.1602-2.5625c2.3516-2.793 5.5977-4.3672 8.9531-4.6523z" fill="#ffffff" stroke-width="1" stroke="#ffffff"></path><path d="m5.4766 51.785c-2.957 0-5.3906 2.4336-5.3906 5.3906v34.234c0 2.957 2.4336 5.3906 5.3906 5.3906h14.418c3.7539 0 6.8555-2.9219 7.1562-6.6016h2.6836c1.0078 0 2.0039 0.23438 2.9062 0.68359l13.273 6.6367c7.5 3.75 16.438 3.2266 23.449-1.375l27.395-17.59c3.5547-2.25 3.9258-7.3477 2.0352-10.367-2.0781-3.1133-6.9805-3.6016-9.9961-1.6602l-19.258 11.383c0.23438-0.73047 0.36328-1.5039 0.36328-2.3086 0-4.1836-3.4297-7.6133-7.6094-7.6133h-13.113c-1.3906 0-2.7266-0.55469-3.7109-1.5391l-3.7656-3.7656c-2.1992-2.1992-5.1836-3.4375-8.2969-3.4375h-6.3125v-0.26562c0-3.9531-3.2344-7.1914-7.1875-7.1914zm0 3.5703h14.418c2.0352 0 3.6172 1.5859 3.6172 3.6211v30.625c0 2.0352-1.582 3.6211-3.6172 3.6211h-14.418c-1.0234 0-1.8164-0.79297-1.8164-1.8164v-34.234c0-1.0234 0.79297-1.8164 1.8164-1.8164zm21.605 7.457h6.3125c2.1641 0 4.2383 0.86328 5.7695 2.3945l3.7656 3.7656c1.6523 1.6523 3.8984 2.5859 6.2383 2.5859h13.113c2.2539 0 4.0391 1.7852 4.0391 4.0391s-1.7852 4.043-4.0391 4.043c-3.8867-0.003906-7.7812 0-11.652 0-0.98828 0-1.7852 0.80078-1.7852 1.7852 0 0.98828 0.80078 1.7852 1.7852 1.7852 4.3945-0.003907 8.793 0.035156 13.188 0.058593 2.3203 0.011719 4.6289-0.57422 6.6562-1.7734 6.7617-4 13.543-7.9961 20.293-12 1.6797-1.1172 3.8789-0.74609 5.1328 0.82812 1.1328 1.7656 0.67187 4.0664-1.0898 5.2266-9.5469 6.1328-19.238 12.355-27.41 17.605-5.9531 3.9062-13.523 4.3477-19.891 1.1641l-13.273-6.6367c-1.3984-0.69922-2.9414-1.0586-4.5039-1.0586h-2.6523z" fill="#ffffff" stroke-width="1" stroke="#ffffff"></path><path d="m63.473 14.426c-0.98828 0-1.7852 0.80078-1.7852 1.7852v6.2422h-6.2422c-0.98437 0-1.7852 0.79688-1.7852 1.7852v6.8789c0 0.98437 0.80078 1.7852 1.7852 1.7852h6.2422v6.2422c0 0.98438 0.79688 1.7852 1.7852 1.7852h6.8789c0.98438 0 1.7852-0.80078 1.7852-1.7852v-6.2422h6.2422c0.98438 0 1.7852-0.80078 1.7852-1.7852v-6.8789c0-0.98828-0.80078-1.7852-1.7852-1.7852h-6.2422v-6.2422c0-0.98438-0.80078-1.7852-1.7852-1.7852zm1.7852 3.5703h3.3086v6.2422c0 0.98438 0.79688 1.7852 1.7852 1.7852h6.2422v3.3086h-6.2422c-0.98828 0-1.7852 0.79688-1.7852 1.7852v6.2422h-3.3086v-6.2422c0-0.98828-0.80078-1.7852-1.7852-1.7852h-6.2422v-3.3086h6.2422c0.98438 0 1.7852-0.80078 1.7852-1.7852z" fill="#ffffff" stroke-width="1" stroke="#ffffff"></path></g></svg> 