<?xml version="1.0" encoding="UTF-8"?> <svg xmlns="http://www.w3.org/2000/svg" viewBox="0 0 100 100" fill-rule="evenodd"><g style="transform-origin: center center; transform: scale(0.7);"><path d="m50 6.5664c-23.949 0-43.434 19.484-43.434 43.434s19.484 43.434 43.434 43.434 43.434-19.484 43.434-43.434-19.484-43.434-43.434-43.434zm40.617 32.707-39.906 10.691v-41.953c19.145 0.32031 35.211 13.5 39.906 31.262zm-82.625 10.727c0-22.926 18.461-41.605 41.297-41.988v42.695l-20.359 35.613c-12.508-7.2852-20.938-20.832-20.938-36.32zm42.008 42.008c-7.168 0-13.922-1.8086-19.832-4.9883l20.301-35.516 40.477-10.848c0.6875 3.0078 1.0586 6.1289 1.0586 9.3398 0.003906 23.168-18.84 42.012-42.004 42.012zm3.7773-56.801c0.61328 2.6328 2.3594 4.9609 4.7812 6.3828 1.6133 0.94531 3.4258 1.4336 5.2227 1.4336 0.90625 0 1.8086-0.125 2.6758-0.375 2.8555-0.82813 5.2266-2.9297 6.8555-6.082 2.0898-4.0469 2.8477-9.5117 1.8828-13.594-0.57031-2.418-1.6445-4.0625-3.1953-4.8906-1.5156-0.80859-3.4844-0.83203-5.8438-0.0625-3.9102 1.2734-8 4.4844-10.426 8.1758-1.957 2.9844-2.6328 6.1016-1.9531 9.0117zm3.1445-8.2305c2.2578-3.4414 6.0586-6.4258 9.6758-7.6055 1.9805-0.64453 3.5703-0.65625 4.7344-0.039063 1.1719 0.625 2.0078 1.9609 2.4805 3.9609 0.89062 3.7773 0.18359 8.8438-1.7617 12.613-1.4453 2.7969-3.5156 4.6523-5.9883 5.3672-2.2227 0.64453-4.6953 0.30859-6.7852-0.91797-2.0898-1.2266-3.5898-3.2227-4.1172-5.4766-0.58594-2.5195 0.023438-5.25 1.7617-7.9023zm7.1719 11.758c3.6484 0 6.6172-2.9688 6.6172-6.6172 0-3.6484-2.9688-6.6172-6.6172-6.6172s-6.6172 2.9688-6.6172 6.6172c0 3.6484 2.9688 6.6172 6.6172 6.6172zm0-11.809c2.8633 0 5.1914 2.3281 5.1914 5.1914 0 2.8633-2.3281 5.1914-5.1914 5.1914s-5.1914-2.3281-5.1914-5.1914c-0.003906-2.8633 2.3281-5.1914 5.1914-5.1914zm-34.781 37.922h0.03125 0.03125c0.94922-0.042968 1.8867-0.21875 2.7891-0.51953 0.84766-0.28125 1.4492-0.94531 1.6445-1.8164 0.84375-3.7656 3.3203-8.8281 6.0469-12.41 2.2852-0.57031 3.9688-2.4453 3.9688-4.668 0-0.25781-0.023438-0.51562-0.066407-0.76953 1.6953-0.78125 2.793-2.3594 2.793-4.0977 0-1.1914-0.50391-2.3242-1.4219-3.1836-0.89453-0.83594-2.0859-1.332-3.3555-1.4141-0.09375-0.83984-0.46484-1.6367-1.0703-2.3008-0.91406-0.99609-2.2656-1.5664-3.707-1.5664-0.54297 0-1.0859 0.082032-1.5977 0.24219-1.1484-1.9961-3.4961-3.2969-6.0508-3.2969-2.668 0-5.0547 1.3789-6.1602 3.4961-0.4375-0.11328-0.88672-0.17188-1.3516-0.17188-2.375 0-4.3555 1.5547-4.7383 3.5938-1.2891 0.070312-2.5039 0.56641-3.4102 1.4141-0.91797 0.85938-1.4219 1.9883-1.4219 3.1836 0 1.6719 0.99219 3.1836 2.582 3.9961-0.058594 0.28516-0.085937 0.57812-0.085937 0.87109 0 2.2656 1.75 4.168 4.1016 4.6992 2.7188 3.5781 5.1836 8.625 6.0234 12.379 0.19531 0.87109 0.79297 1.5352 1.6445 1.8164 0.89453 0.30469 1.832 0.48047 2.7812 0.52344zm-13.133-19.414c0-0.35156 0.0625-0.69531 0.18359-1.0273 0.13672-0.36719-0.054687-0.77734-0.42188-0.91406-1.3711-0.50391-2.2539-1.6523-2.2539-2.9258 0-0.79297 0.34375-1.5547 0.97266-2.1445 0.78125-0.73047 1.8867-1.1055 3.0352-1.0312 0.19531 0.011719 0.39063-0.054687 0.53516-0.19141 0.14453-0.13281 0.22656-0.32422 0.22656-0.51953 0-1.5898 1.5156-2.8828 3.3828-2.8828 0.51172 0 1.0039 0.097656 1.4648 0.28516 0.17969 0.074219 0.37891 0.070313 0.55469-0.003906 0.17578-0.078125 0.31641-0.22266 0.38281-0.40234 0.72266-1.9141 2.7773-3.2031 5.1094-3.2031 2.25 0 4.2773 1.2266 5.0469 3.0508 0.074218 0.17969 0.22266 0.32031 0.40234 0.38672 0.17969 0.070313 0.38281 0.0625 0.55859-0.023437 0.5-0.23828 1.0664-0.36328 1.6367-0.36328 1.043 0 2.0117 0.40234 2.6602 1.1055 0.51953 0.56641 0.77344 1.2695 0.71094 1.9883-0.015626 0.20703 0.054687 0.41016 0.20312 0.55859 0.14453 0.14844 0.34766 0.22656 0.55469 0.21094 1.1523-0.074219 2.2578 0.30078 3.0352 1.0312 0.625 0.58594 0.97266 1.3477 0.97266 2.1445 0 1.3242-0.97656 2.5234-2.4297 2.9844-0.18359 0.058594-0.33594 0.1875-0.42188 0.35938s-0.097656 0.37109-0.035156 0.55078c0.10938 0.31641 0.16406 0.64062 0.16406 0.97266 0 1.8906-1.793 3.4258-4 3.4258-1.2188 0-2.3594-0.46875-3.1211-1.2891-0.15234-0.16406-0.375-0.24609-0.60156-0.22266-0.22266 0.023438-0.42188 0.15625-0.53516 0.34766-0.92188 1.5781-2.7617 2.5586-4.8008 2.5586-2.0469 0-3.9453-1.0273-4.8359-2.6211-0.11328-0.19922-0.31641-0.33594-0.54297-0.35938-0.027344-0.003906-0.050781-0.003906-0.078125-0.003906-0.20312 0-0.39453 0.085937-0.53125 0.23828-0.76562 0.85938-1.9219 1.3516-3.1797 1.3516-2.2109 0.007812-4.0039-1.5312-4.0039-3.4219zm18.047 4.3984c-0.74219 1.0234-1.3711 1.9297-1.875 2.7148l-0.17187-1.4258c0.76562-0.3125 1.457-0.74609 2.0469-1.2891zm-7.7148 1.293-0.17188 1.4219c-0.50391-0.78516-1.1328-1.6914-1.875-2.7148 0.58984 0.54297 1.2812 0.98047 2.0469 1.293zm-0.24219 11.078c-0.92969-4.1523-3.3359-8.7617-5.5703-11.957 0.68359-0.058594 1.332-0.22656 1.9336-0.5 1.7461 2.3477 2.9102 4.0938 3.5312 5.3125 0.125 0.24219 0.37109 0.38672 0.63281 0.38672 0.042969 0 0.082031-0.003906 0.125-0.011718 0.30859-0.054688 0.54297-0.30469 0.58203-0.61719l0.39453-3.2773c0.46875 0.089844 0.95312 0.14453 1.4492 0.14453s0.98047-0.054688 1.4492-0.14453l0.39062 3.2773c0.039062 0.3125 0.27344 0.5625 0.58203 0.61719 0.042969 0.007812 0.082031 0.011718 0.125 0.011718 0.26562 0 0.51172-0.14844 0.63281-0.38672 0.61719-1.2109 1.7734-2.9453 3.5039-5.2773 0.60547 0.26562 1.2656 0.42578 1.9531 0.47266-2.2344 3.1953-4.6328 7.7969-5.5625 11.949-0.085937 0.38281-0.32812 0.65234-0.70312 0.77734-0.76562 0.25391-1.5664 0.40625-2.3711 0.44531-0.80859-0.039062-1.6055-0.19141-2.3711-0.44531-0.37891-0.125-0.62109-0.39453-0.70703-0.77734zm33.164 0.94531c-1.8047 0.16797-3.2305 2.3008-3.5117 4.1797-0.054687 0.35156-0.35547 0.60547-0.70312 0.60547-0.035156 0-0.070312-0.003906-0.10547-0.007813-0.39062-0.058593-0.65625-0.42188-0.59766-0.80859 0.37109-2.4609 2.2656-5.1523 4.7891-5.3867 0.39062-0.039063 0.73828 0.25 0.77344 0.64453 0.035156 0.39062-0.25 0.73828-0.64453 0.77344zm19.562-0.93359c-0.09375-0.16406-0.25-0.28125-0.43359-0.33203-0.18359-0.046874-0.375-0.023437-0.53906 0.070313l-3.9414 2.2734c-0.97266-2.6289-2.8398-4.8359-5.1406-5.9922-1.8477-0.92969-3.8438-1.1289-5.8281-0.60547-0.019531-2.0352 0.44922-3.6797 1.2969-4.4688 0.28906-0.26562 0.30469-0.71875 0.039063-1.0078-0.26562-0.28906-0.71875-0.30469-1.0078-0.039063-1.4961 1.3867-1.7695 3.8047-1.7578 5.4922-2.1484-0.54688-4.293-0.24609-6.2539 0.90234-2.7227 1.5938-4.7266 4.6406-5.2266 7.957-0.39844 2.6523 0.22656 5.1523 1.7656 7.043 1.8438 2.2656 4.9375 3.5859 8.9453 3.8438 2.1758 1.8242 4.9141 2.8281 7.7188 2.8281 2.0312 0 4.0898-0.51563 5.9727-1.6016 2.7734-1.6016 4.7539-4.1836 5.582-7.2773 0.83594-3.0859 0.41016-6.3164-1.1914-9.0859zm-2.3398 7.4062-6.1953-1.6602 5.5547-3.207c0.71484 1.5273 0.9375 3.2109 0.64062 4.8672zm-10.828 6.2539c-1.582-0.57422-2.9297-1.6094-3.8945-2.9883l5.5547-3.207zm3.0352-5.8242 3.207 5.5547c-1.5234 0.71484-3.2109 0.9375-4.8672 0.64062zm4.4375 4.8398-3.207-5.5547 6.1953 1.6602c-0.57422 1.5859-1.6094 2.9336-2.9883 3.8945zm-20.223-2.2773c-1.2812-1.5742-1.8008-3.6836-1.4609-5.9336 0.42969-2.8555 2.2109-5.5781 4.5391-6.9414 1.3125-0.76953 3.4258-1.4766 6.0352-0.48828 0.16406 0.0625 0.34375 0.0625 0.50391 0 1.9023-0.72266 3.8438-0.63281 5.6094 0.25391 2.0469 1.0312 3.7031 3.043 4.5234 5.4453l-14.324 8.2695c-0.16406 0.09375-0.28125 0.25-0.33203 0.43359s-0.023437 0.375 0.070313 0.53906c0.32031 0.55469 0.6875 1.0664 1.082 1.5469-2.7734-0.43359-4.918-1.4961-6.2461-3.125zm20.82 4.7383c-4.8359 2.793-10.984 1.3125-14.047-3.2617l0.84766-0.48828c1.293 1.9023 3.1953 3.2695 5.4375 3.8711 0.82812 0.22266 1.6641 0.33203 2.4961 0.33203 1.6602 0 3.3008-0.4375 4.7812-1.2891 2.2188-1.2812 3.8047-3.3477 4.4688-5.8242 0.60156-2.2422 0.37109-4.5742-0.63281-6.6445l0.84766-0.48828c2.4297 4.9375 0.63672 11-4.1992 13.793z" fill="#ffffff" stroke-width="1" stroke="#ffffff"></path></g></svg> 